<svg width="480" height="333" viewBox="0 0 480 333" fill="none" xmlns="http://www.w3.org/2000/svg">
<rect width="480" height="333" fill="#F5F5F5"/>
<path fill-rule="evenodd" clip-rule="evenodd" d="M100 164.992C99.9847 166.096 100.882 167 101.986 167H120.986C122.091 167 122.984 166.097 123.004 164.992C124.095 102.406 176.11 52 240.116 52C304.122 52 356.137 102.406 357.228 164.992C357.247 166.097 358.141 167 359.245 167H377.986C379.091 167 379.988 166.096 379.972 164.992C378.898 88.5977 316.635 27 239.986 27C163.337 27 101.074 88.5977 100 164.992Z" fill="#D9D9D9"/>
<path fill-rule="evenodd" clip-rule="evenodd" d="M378.269 167C379.373 167 380.27 166.105 380.254 165C379.756 130.443 366.319 96.0318 339.942 69.3894C339.174 68.614 337.924 68.6131 337.146 69.3779L323.451 82.8371C322.654 83.6208 322.657 84.9064 323.44 85.704C345.055 107.706 355.83 136.247 355.827 164.964C355.827 166.082 356.726 167 357.845 167H378.269Z" fill="#CC1F1D"/>
<path fill-rule="evenodd" clip-rule="evenodd" d="M239 27C275.555 26.9987 312.11 41.0803 340 69.2448L323.408 86C300.248 62.612 269.638 51.2238 239 51.7668V27Z" fill="#F28382"/>
<path fill-rule="evenodd" clip-rule="evenodd" d="M102 167C100.895 167 99.9985 166.105 100.014 165C100.512 130.443 113.95 96.0318 140.327 69.3894C141.094 68.614 142.345 68.6131 143.123 69.3779L156.817 82.8371C157.615 83.6208 157.612 84.9064 156.828 85.704C135.214 107.706 124.438 136.247 124.441 164.964C124.442 166.082 123.542 167 122.424 167H102Z" fill="#FFEAE7"/>
<path fill-rule="evenodd" clip-rule="evenodd" d="M240 27C203.807 26.9987 167.614 41.3189 140 69.9608L156.428 87C179.359 63.2156 209.666 51.6344 240 52.1866V27Z" fill="#FFC4C4"/>
<path fill-rule="evenodd" clip-rule="evenodd" d="M237.018 44.6745C237.407 41.1085 242.593 41.1085 242.982 44.6745L255.939 163.393C255.964 163.621 255.962 163.845 255.938 164.062C255.979 164.541 256 165.026 256 165.516C256 174.549 248.837 181.872 240 181.872C231.163 181.872 224 174.549 224 165.516C224 165.026 224.021 164.541 224.062 164.062C224.038 163.845 224.036 163.621 224.061 163.393L237.018 44.6745ZM240 170C241.657 170 243 168.657 243 167C243 165.343 241.657 164 240 164C238.343 164 237 165.343 237 167C237 168.657 238.343 170 240 170Z" fill="#2A2727"/>
</svg>
