<svg width="480" height="333" viewBox="0 0 480 333" fill="none" xmlns="http://www.w3.org/2000/svg">
<g id="meter">
<path id="Subtract" fill-rule="evenodd" clip-rule="evenodd" d="M11.0001 250.791C10.9905 251.896 11.8868 252.801 12.9914 252.801L46.577 252.801C47.6816 252.801 48.5759 251.896 48.5878 250.792C49.6899 148.372 134.959 65.6787 239.985 65.6787C345.011 65.6787 430.28 148.372 431.383 250.792C431.395 251.896 432.289 252.801 433.393 252.801L466.555 252.801C467.66 252.801 468.556 251.896 468.547 250.791C467.463 125.906 365.453 25 239.773 25C114.094 25 12.0839 125.906 11.0001 250.791Z" fill="#D9D9D9"/>
<path id="high" fill-rule="evenodd" clip-rule="evenodd" d="M467.017 252.801C468.121 252.801 469.018 251.905 469.008 250.801C468.502 193.767 446.244 136.884 402.234 93.0908C401.463 92.3235 400.217 92.3212 399.439 93.082L375.258 116.747C374.456 117.531 374.46 118.823 375.253 119.616C411.498 155.861 429.403 203.214 429.071 250.764C429.063 251.883 429.963 252.801 431.082 252.801H467.017Z" fill="#CC1F1D"/>
<path id="med-high" fill-rule="evenodd" clip-rule="evenodd" d="M238.162 25C297.898 24.9979 357.635 47.9107 403.212 93.7386L376.098 121.002C338.25 82.946 288.229 64.4158 238.162 65.2992V25Z" fill="#F28382"/>
<path id="low" fill-rule="evenodd" clip-rule="evenodd" d="M13.014 252.801C11.9094 252.801 11.0131 251.905 11.0229 250.801C11.5293 193.767 33.7872 136.884 77.7967 93.0908C78.5677 92.3235 79.8143 92.3212 80.5917 93.082L104.773 116.747C105.575 117.531 105.571 118.823 104.778 119.616C68.533 155.861 50.6276 203.214 50.9597 250.764C50.9675 251.883 50.0675 252.801 48.9489 252.801H13.014Z" fill="#FFEAE7"/>
<path id="med-low" fill-rule="evenodd" clip-rule="evenodd" d="M239.796 25C180.651 24.9978 121.506 48.299 76.3804 94.9036L103.226 122.629C140.699 83.9281 190.225 65.0838 239.796 65.9823V25Z" fill="#FFC4C4"/>
<path id="dial" fill-rule="evenodd" clip-rule="evenodd" d="M24.6731 229.275C21.109 228.885 21.1089 223.702 24.6731 223.311L237.186 200.018C237.626 199.97 238.051 200.019 238.443 200.147L238.556 200.147C253.255 200.147 265.17 211.853 265.17 226.293C265.17 240.733 253.255 252.44 238.556 252.44L238.443 252.439C238.051 252.567 237.626 252.616 237.186 252.568L24.6731 229.275ZM245.852 226.293C245.852 223.585 243.667 221.391 240.971 221.391C238.275 221.391 236.09 223.585 236.09 226.293C236.09 229.001 238.275 231.195 240.971 231.195C243.667 231.195 245.852 229.001 245.852 226.293Z" fill="#2A2727"/>
</g>
</svg>
